<svg xmlns="http://www.w3.org/2000/svg" width="860" height="280" font-family="sans-serif">
  <text x="430" y="17" text-anchor="middle" font-size="12" font-weight="600" fill="#222">GPT-2: aiperf vs vLLM Docker — ISL distribution (n=20,000, ISL=128, range_ratio=0.3)</text>
  <text x="430" y="30" text-anchor="middle" font-size="9" fill="#888">ChatML fallback template (+27 tokens). Both distributions identical.</text>
  <rect x="52" y="4" width="12" height="9" fill="rgba(37,99,235,0.7)"/><text x="66" y="12" font-size="9" fill="#333">aiperf</text><rect x="132" y="4" width="12" height="9" fill="rgba(220,38,38,0.45)"/><text x="146" y="12" font-size="9" fill="#333">vLLM Docker</text>
  <line x1="52" y1="36.0" x2="844" y2="36.0" stroke="#eee" stroke-width="1"/><text x="48" y="40.0" text-anchor="end" font-size="9" fill="#999">3.1%</text><line x1="52" y1="85.5" x2="844" y2="85.5" stroke="#eee" stroke-width="1"/><text x="48" y="89.5" text-anchor="end" font-size="9" fill="#999">2.3%</text><line x1="52" y1="135.0" x2="844" y2="135.0" stroke="#eee" stroke-width="1"/><text x="48" y="139.0" text-anchor="end" font-size="9" fill="#999">1.5%</text><line x1="52" y1="184.5" x2="844" y2="184.5" stroke="#eee" stroke-width="1"/><text x="48" y="188.5" text-anchor="end" font-size="9" fill="#999">0.8%</text><line x1="52" y1="234.0" x2="844" y2="234.0" stroke="#eee" stroke-width="1"/><text x="48" y="238.0" text-anchor="end" font-size="9" fill="#999">0.0%</text>
  <rect x="104.80" y="63.70" width="17.10" height="170.30" fill="rgba(220,38,38,0.45)"/><rect x="104.80" y="63.70" width="17.10" height="170.30" fill="rgba(37,99,235,0.70)"/><rect x="122.40" y="57.54" width="17.10" height="176.46" fill="rgba(220,38,38,0.45)"/><rect x="122.40" y="57.21" width="17.10" height="176.79" fill="rgba(37,99,235,0.70)"/><rect x="140.00" y="74.73" width="17.10" height="159.27" fill="rgba(220,38,38,0.45)"/><rect x="140.00" y="75.06" width="17.10" height="158.94" fill="rgba(37,99,235,0.70)"/><rect x="157.60" y="67.59" width="17.10" height="166.41" fill="rgba(220,38,38,0.45)"/><rect x="157.60" y="67.59" width="17.10" height="166.41" fill="rgba(37,99,235,0.70)"/><rect x="175.20" y="76.68" width="17.10" height="157.32" fill="rgba(220,38,38,0.45)"/><rect x="175.20" y="76.68" width="17.10" height="157.32" fill="rgba(37,99,235,0.70)"/><rect x="192.80" y="65.97" width="17.10" height="168.03" fill="rgba(220,38,38,0.45)"/><rect x="192.80" y="65.97" width="17.10" height="168.03" fill="rgba(37,99,235,0.70)"/><rect x="210.40" y="64.67" width="17.10" height="169.33" fill="rgba(220,38,38,0.45)"/><rect x="210.40" y="65.00" width="17.10" height="169.00" fill="rgba(37,99,235,0.70)"/><rect x="228.00" y="65.00" width="17.10" height="169.00" fill="rgba(220,38,38,0.45)"/><rect x="228.00" y="64.67" width="17.10" height="169.33" fill="rgba(37,99,235,0.70)"/><rect x="245.60" y="78.62" width="17.10" height="155.38" fill="rgba(220,38,38,0.45)"/><rect x="245.60" y="78.62" width="17.10" height="155.38" fill="rgba(37,99,235,0.70)"/><rect x="263.20" y="64.67" width="17.10" height="169.33" fill="rgba(220,38,38,0.45)"/><rect x="263.20" y="64.67" width="17.10" height="169.33" fill="rgba(37,99,235,0.70)"/><rect x="280.80" y="81.22" width="17.10" height="152.78" fill="rgba(220,38,38,0.45)"/><rect x="280.80" y="81.22" width="17.10" height="152.78" fill="rgba(37,99,235,0.70)"/><rect x="298.40" y="69.54" width="17.10" height="164.46" fill="rgba(220,38,38,0.45)"/><rect x="298.40" y="69.54" width="17.10" height="164.46" fill="rgba(37,99,235,0.70)"/><rect x="316.00" y="70.19" width="17.10" height="163.81" fill="rgba(220,38,38,0.45)"/><rect x="316.00" y="70.51" width="17.10" height="163.49" fill="rgba(37,99,235,0.70)"/><rect x="333.60" y="75.70" width="17.10" height="158.30" fill="rgba(220,38,38,0.45)"/><rect x="333.60" y="75.38" width="17.10" height="158.62" fill="rgba(37,99,235,0.70)"/><rect x="351.20" y="68.89" width="17.10" height="165.11" fill="rgba(220,38,38,0.45)"/><rect x="351.20" y="68.89" width="17.10" height="165.11" fill="rgba(37,99,235,0.70)"/><rect x="368.80" y="72.78" width="17.10" height="161.22" fill="rgba(220,38,38,0.45)"/><rect x="368.80" y="72.78" width="17.10" height="161.22" fill="rgba(37,99,235,0.70)"/><rect x="386.40" y="69.87" width="17.10" height="164.13" fill="rgba(220,38,38,0.45)"/><rect x="386.40" y="69.87" width="17.10" height="164.13" fill="rgba(37,99,235,0.70)"/><rect x="404.00" y="62.73" width="17.10" height="171.27" fill="rgba(220,38,38,0.45)"/><rect x="404.00" y="62.73" width="17.10" height="171.27" fill="rgba(37,99,235,0.70)"/><rect x="421.60" y="72.14" width="17.10" height="161.86" fill="rgba(220,38,38,0.45)"/><rect x="421.60" y="72.14" width="17.10" height="161.86" fill="rgba(37,99,235,0.70)"/><rect x="439.20" y="77.97" width="17.10" height="156.03" fill="rgba(220,38,38,0.45)"/><rect x="439.20" y="77.97" width="17.10" height="156.03" fill="rgba(37,99,235,0.70)"/><rect x="456.80" y="69.22" width="17.10" height="164.78" fill="rgba(220,38,38,0.45)"/><rect x="456.80" y="69.22" width="17.10" height="164.78" fill="rgba(37,99,235,0.70)"/><rect x="474.40" y="68.57" width="17.10" height="165.43" fill="rgba(220,38,38,0.45)"/><rect x="474.40" y="68.57" width="17.10" height="165.43" fill="rgba(37,99,235,0.70)"/><rect x="492.00" y="61.11" width="17.10" height="172.89" fill="rgba(220,38,38,0.45)"/><rect x="492.00" y="61.11" width="17.10" height="172.89" fill="rgba(37,99,235,0.70)"/><rect x="509.60" y="66.30" width="17.10" height="167.70" fill="rgba(220,38,38,0.45)"/><rect x="509.60" y="66.30" width="17.10" height="167.70" fill="rgba(37,99,235,0.70)"/><rect x="527.20" y="85.76" width="17.10" height="148.24" fill="rgba(220,38,38,0.45)"/><rect x="527.20" y="85.44" width="17.10" height="148.56" fill="rgba(37,99,235,0.70)"/><rect x="544.80" y="62.40" width="17.10" height="171.60" fill="rgba(220,38,38,0.45)"/><rect x="544.80" y="62.73" width="17.10" height="171.27" fill="rgba(37,99,235,0.70)"/><rect x="562.40" y="59.48" width="17.10" height="174.52" fill="rgba(220,38,38,0.45)"/><rect x="562.40" y="59.48" width="17.10" height="174.52" fill="rgba(37,99,235,0.70)"/><rect x="580.00" y="70.84" width="17.10" height="163.16" fill="rgba(220,38,38,0.45)"/><rect x="580.00" y="70.84" width="17.10" height="163.16" fill="rgba(37,99,235,0.70)"/><rect x="597.60" y="70.51" width="17.10" height="163.49" fill="rgba(220,38,38,0.45)"/><rect x="597.60" y="70.51" width="17.10" height="163.49" fill="rgba(37,99,235,0.70)"/><rect x="615.20" y="77.65" width="17.10" height="156.35" fill="rgba(220,38,38,0.45)"/><rect x="615.20" y="77.97" width="17.10" height="156.03" fill="rgba(37,99,235,0.70)"/><rect x="632.80" y="67.59" width="17.10" height="166.41" fill="rgba(220,38,38,0.45)"/><rect x="632.80" y="66.95" width="17.10" height="167.05" fill="rgba(37,99,235,0.70)"/><rect x="650.40" y="77.65" width="17.10" height="156.35" fill="rgba(220,38,38,0.45)"/><rect x="650.40" y="77.65" width="17.10" height="156.35" fill="rgba(37,99,235,0.70)"/><rect x="668.00" y="63.05" width="17.10" height="170.95" fill="rgba(220,38,38,0.45)"/><rect x="668.00" y="63.05" width="17.10" height="170.95" fill="rgba(37,99,235,0.70)"/><rect x="685.60" y="60.13" width="17.10" height="173.87" fill="rgba(220,38,38,0.45)"/><rect x="685.60" y="60.46" width="17.10" height="173.54" fill="rgba(37,99,235,0.70)"/><rect x="703.20" y="81.87" width="17.10" height="152.13" fill="rgba(220,38,38,0.45)"/><rect x="703.20" y="81.87" width="17.10" height="152.13" fill="rgba(37,99,235,0.70)"/><rect x="720.80" y="71.16" width="17.10" height="162.84" fill="rgba(220,38,38,0.45)"/><rect x="720.80" y="71.49" width="17.10" height="162.51" fill="rgba(37,99,235,0.70)"/><rect x="738.40" y="69.54" width="17.10" height="164.46" fill="rgba(220,38,38,0.45)"/><rect x="738.40" y="69.22" width="17.10" height="164.78" fill="rgba(37,99,235,0.70)"/><rect x="756.00" y="82.52" width="17.10" height="151.48" fill="rgba(220,38,38,0.45)"/><rect x="756.00" y="82.52" width="17.10" height="151.48" fill="rgba(37,99,235,0.70)"/><rect x="773.60" y="62.73" width="17.10" height="171.27" fill="rgba(220,38,38,0.45)"/><rect x="773.60" y="62.73" width="17.10" height="171.27" fill="rgba(37,99,235,0.70)"/><rect x="791.20" y="144.15" width="17.10" height="89.85" fill="rgba(220,38,38,0.45)"/><rect x="791.20" y="144.15" width="17.10" height="89.85" fill="rgba(37,99,235,0.70)"/>
  <text x="60.8" y="248" text-anchor="middle" font-size="9" fill="#555">110</text><text x="131.2" y="248" text-anchor="middle" font-size="9" fill="#555">118</text><text x="201.6" y="248" text-anchor="middle" font-size="9" fill="#555">126</text><text x="272.0" y="248" text-anchor="middle" font-size="9" fill="#555">134</text><text x="342.4" y="248" text-anchor="middle" font-size="9" fill="#555">142</text><text x="412.8" y="248" text-anchor="middle" font-size="9" fill="#555">150</text><text x="483.2" y="248" text-anchor="middle" font-size="9" fill="#555">158</text><text x="553.6" y="248" text-anchor="middle" font-size="9" fill="#555">166</text><text x="624.0" y="248" text-anchor="middle" font-size="9" fill="#555">174</text><text x="694.4" y="248" text-anchor="middle" font-size="9" fill="#555">182</text><text x="764.8" y="248" text-anchor="middle" font-size="9" fill="#555">190</text><text x="835.2" y="248" text-anchor="middle" font-size="9" fill="#555">198</text>
  <text transform="rotate(-90) translate(-140,13)" text-anchor="middle" font-size="10" fill="#555">% of requests</text>
  <text x="430" y="278" text-anchor="middle" font-size="10" fill="#555">ISL (tokens, template-inclusive)</text>
  <text x="52" y="278" font-size="9" fill="#059669">aiperf mean=154.9 std=22.86 | vLLM Docker mean=154.9 std=22.86 | delta = 0.0</text>
</svg>