<svg xmlns="http://www.w3.org/2000/svg" width="860" height="280" font-family="sans-serif">
  <text x="430" y="17" text-anchor="middle" font-size="12" font-weight="600" fill="#222">Llama 3.1 8B Instruct: aiperf vs vLLM Docker — ISL distribution (n=20,000, ISL=128, range_ratio=0.3)</text>
  <text x="430" y="30" text-anchor="middle" font-size="9" fill="#888">Native chat template (~39 tokens overhead). Both distributions identical after multimodal content fix.</text>
  <rect x="52" y="4" width="12" height="9" fill="rgba(37,99,235,0.7)"/><text x="66" y="12" font-size="9" fill="#333">aiperf</text><rect x="132" y="4" width="12" height="9" fill="rgba(220,38,38,0.45)"/><text x="146" y="12" font-size="9" fill="#333">vLLM Docker</text>
  <line x1="52" y1="36.0" x2="844" y2="36.0" stroke="#eee" stroke-width="1"/><text x="48" y="40.0" text-anchor="end" font-size="9" fill="#999">3.0%</text><line x1="52" y1="85.5" x2="844" y2="85.5" stroke="#eee" stroke-width="1"/><text x="48" y="89.5" text-anchor="end" font-size="9" fill="#999">2.3%</text><line x1="52" y1="135.0" x2="844" y2="135.0" stroke="#eee" stroke-width="1"/><text x="48" y="139.0" text-anchor="end" font-size="9" fill="#999">1.5%</text><line x1="52" y1="184.5" x2="844" y2="184.5" stroke="#eee" stroke-width="1"/><text x="48" y="188.5" text-anchor="end" font-size="9" fill="#999">0.8%</text><line x1="52" y1="234.0" x2="844" y2="234.0" stroke="#eee" stroke-width="1"/><text x="48" y="238.0" text-anchor="end" font-size="9" fill="#999">0.0%</text>
  <rect x="86.43" y="172.79" width="16.72" height="61.21" fill="rgba(220,38,38,0.45)"/><rect x="86.43" y="172.79" width="16.72" height="61.21" fill="rgba(37,99,235,0.70)"/><rect x="103.65" y="66.00" width="16.72" height="168.00" fill="rgba(220,38,38,0.45)"/><rect x="103.65" y="65.68" width="16.72" height="168.32" fill="rgba(37,99,235,0.70)"/><rect x="120.87" y="61.45" width="16.72" height="172.55" fill="rgba(220,38,38,0.45)"/><rect x="120.87" y="61.77" width="16.72" height="172.23" fill="rgba(37,99,235,0.70)"/><rect x="138.09" y="68.93" width="16.72" height="165.07" fill="rgba(220,38,38,0.45)"/><rect x="138.09" y="69.59" width="16.72" height="164.41" fill="rgba(37,99,235,0.70)"/><rect x="155.30" y="72.19" width="16.72" height="161.81" fill="rgba(220,38,38,0.45)"/><rect x="155.30" y="71.54" width="16.72" height="162.46" fill="rgba(37,99,235,0.70)"/><rect x="172.52" y="70.56" width="16.72" height="163.44" fill="rgba(220,38,38,0.45)"/><rect x="172.52" y="70.89" width="16.72" height="163.11" fill="rgba(37,99,235,0.70)"/><rect x="189.74" y="67.63" width="16.72" height="166.37" fill="rgba(220,38,38,0.45)"/><rect x="189.74" y="67.31" width="16.72" height="166.69" fill="rgba(37,99,235,0.70)"/><rect x="206.96" y="63.07" width="16.72" height="170.93" fill="rgba(220,38,38,0.45)"/><rect x="206.96" y="62.75" width="16.72" height="171.25" fill="rgba(37,99,235,0.70)"/><rect x="224.17" y="71.87" width="16.72" height="162.13" fill="rgba(220,38,38,0.45)"/><rect x="224.17" y="72.19" width="16.72" height="161.81" fill="rgba(37,99,235,0.70)"/><rect x="241.39" y="79.03" width="16.72" height="154.97" fill="rgba(220,38,38,0.45)"/><rect x="241.39" y="79.03" width="16.72" height="154.97" fill="rgba(37,99,235,0.70)"/><rect x="258.61" y="64.38" width="16.72" height="169.62" fill="rgba(220,38,38,0.45)"/><rect x="258.61" y="63.40" width="16.72" height="170.60" fill="rgba(37,99,235,0.70)"/><rect x="275.83" y="76.42" width="16.72" height="157.58" fill="rgba(220,38,38,0.45)"/><rect x="275.83" y="77.73" width="16.72" height="156.27" fill="rgba(37,99,235,0.70)"/><rect x="293.04" y="66.33" width="16.72" height="167.67" fill="rgba(220,38,38,0.45)"/><rect x="293.04" y="66.00" width="16.72" height="168.00" fill="rgba(37,99,235,0.70)"/><rect x="310.26" y="66.98" width="16.72" height="167.02" fill="rgba(220,38,38,0.45)"/><rect x="310.26" y="67.31" width="16.72" height="166.69" fill="rgba(37,99,235,0.70)"/><rect x="327.48" y="74.47" width="16.72" height="159.53" fill="rgba(220,38,38,0.45)"/><rect x="327.48" y="73.82" width="16.72" height="160.18" fill="rgba(37,99,235,0.70)"/><rect x="344.70" y="74.80" width="16.72" height="159.20" fill="rgba(220,38,38,0.45)"/><rect x="344.70" y="75.45" width="16.72" height="158.55" fill="rgba(37,99,235,0.70)"/><rect x="361.91" y="72.19" width="16.72" height="161.81" fill="rgba(220,38,38,0.45)"/><rect x="361.91" y="72.52" width="16.72" height="161.48" fill="rgba(37,99,235,0.70)"/><rect x="379.13" y="63.07" width="16.72" height="170.93" fill="rgba(220,38,38,0.45)"/><rect x="379.13" y="61.77" width="16.72" height="172.23" fill="rgba(37,99,235,0.70)"/><rect x="396.35" y="64.38" width="16.72" height="169.62" fill="rgba(220,38,38,0.45)"/><rect x="396.35" y="65.03" width="16.72" height="168.97" fill="rgba(37,99,235,0.70)"/><rect x="413.57" y="73.82" width="16.72" height="160.18" fill="rgba(220,38,38,0.45)"/><rect x="413.57" y="73.82" width="16.72" height="160.18" fill="rgba(37,99,235,0.70)"/><rect x="430.78" y="80.33" width="16.72" height="153.67" fill="rgba(220,38,38,0.45)"/><rect x="430.78" y="80.00" width="16.72" height="154.00" fill="rgba(37,99,235,0.70)"/><rect x="448.00" y="65.03" width="16.72" height="168.97" fill="rgba(220,38,38,0.45)"/><rect x="448.00" y="65.68" width="16.72" height="168.32" fill="rgba(37,99,235,0.70)"/><rect x="465.22" y="64.38" width="16.72" height="169.62" fill="rgba(220,38,38,0.45)"/><rect x="465.22" y="64.38" width="16.72" height="169.62" fill="rgba(37,99,235,0.70)"/><rect x="482.43" y="61.77" width="16.72" height="172.23" fill="rgba(220,38,38,0.45)"/><rect x="482.43" y="61.45" width="16.72" height="172.55" fill="rgba(37,99,235,0.70)"/><rect x="499.65" y="78.70" width="16.72" height="155.30" fill="rgba(220,38,38,0.45)"/><rect x="499.65" y="79.03" width="16.72" height="154.97" fill="rgba(37,99,235,0.70)"/><rect x="516.87" y="70.24" width="16.72" height="163.76" fill="rgba(220,38,38,0.45)"/><rect x="516.87" y="69.91" width="16.72" height="164.09" fill="rgba(37,99,235,0.70)"/><rect x="534.09" y="63.73" width="16.72" height="170.27" fill="rgba(220,38,38,0.45)"/><rect x="534.09" y="64.38" width="16.72" height="169.62" fill="rgba(37,99,235,0.70)"/><rect x="551.30" y="58.52" width="16.72" height="175.48" fill="rgba(220,38,38,0.45)"/><rect x="551.30" y="57.87" width="16.72" height="176.13" fill="rgba(37,99,235,0.70)"/><rect x="568.52" y="64.05" width="16.72" height="169.95" fill="rgba(220,38,38,0.45)"/><rect x="568.52" y="64.05" width="16.72" height="169.95" fill="rgba(37,99,235,0.70)"/><rect x="585.74" y="79.35" width="16.72" height="154.65" fill="rgba(220,38,38,0.45)"/><rect x="585.74" y="80.00" width="16.72" height="154.00" fill="rgba(37,99,235,0.70)"/><rect x="602.96" y="80.00" width="16.72" height="154.00" fill="rgba(220,38,38,0.45)"/><rect x="602.96" y="79.35" width="16.72" height="154.65" fill="rgba(37,99,235,0.70)"/><rect x="620.17" y="70.89" width="16.72" height="163.11" fill="rgba(220,38,38,0.45)"/><rect x="620.17" y="71.21" width="16.72" height="162.79" fill="rgba(37,99,235,0.70)"/><rect x="637.39" y="69.26" width="16.72" height="164.74" fill="rgba(220,38,38,0.45)"/><rect x="637.39" y="68.93" width="16.72" height="165.07" fill="rgba(37,99,235,0.70)"/><rect x="654.61" y="57.21" width="16.72" height="176.79" fill="rgba(220,38,38,0.45)"/><rect x="654.61" y="57.21" width="16.72" height="176.79" fill="rgba(37,99,235,0.70)"/><rect x="671.83" y="66.33" width="16.72" height="167.67" fill="rgba(220,38,38,0.45)"/><rect x="671.83" y="65.68" width="16.72" height="168.32" fill="rgba(37,99,235,0.70)"/><rect x="689.04" y="80.00" width="16.72" height="154.00" fill="rgba(220,38,38,0.45)"/><rect x="689.04" y="80.98" width="16.72" height="153.02" fill="rgba(37,99,235,0.70)"/><rect x="706.26" y="68.93" width="16.72" height="165.07" fill="rgba(220,38,38,0.45)"/><rect x="706.26" y="68.93" width="16.72" height="165.07" fill="rgba(37,99,235,0.70)"/><rect x="723.48" y="80.33" width="16.72" height="153.67" fill="rgba(220,38,38,0.45)"/><rect x="723.48" y="79.35" width="16.72" height="154.65" fill="rgba(37,99,235,0.70)"/><rect x="740.70" y="67.63" width="16.72" height="166.37" fill="rgba(220,38,38,0.45)"/><rect x="740.70" y="68.93" width="16.72" height="165.07" fill="rgba(37,99,235,0.70)"/><rect x="757.91" y="65.03" width="16.72" height="168.97" fill="rgba(220,38,38,0.45)"/><rect x="757.91" y="64.38" width="16.72" height="169.62" fill="rgba(37,99,235,0.70)"/><rect x="775.13" y="200.47" width="16.72" height="33.53" fill="rgba(220,38,38,0.45)"/><rect x="775.13" y="200.47" width="16.72" height="33.53" fill="rgba(37,99,235,0.70)"/>
  <text x="60.6" y="248" text-anchor="middle" font-size="9" fill="#555">118</text><text x="146.7" y="248" text-anchor="middle" font-size="9" fill="#555">128</text><text x="232.8" y="248" text-anchor="middle" font-size="9" fill="#555">138</text><text x="318.9" y="248" text-anchor="middle" font-size="9" fill="#555">148</text><text x="405.0" y="248" text-anchor="middle" font-size="9" fill="#555">158</text><text x="491.0" y="248" text-anchor="middle" font-size="9" fill="#555">168</text><text x="577.1" y="248" text-anchor="middle" font-size="9" fill="#555">178</text><text x="663.2" y="248" text-anchor="middle" font-size="9" fill="#555">188</text><text x="749.3" y="248" text-anchor="middle" font-size="9" fill="#555">198</text><text x="835.4" y="248" text-anchor="middle" font-size="9" fill="#555">208</text>
  <text transform="rotate(-90) translate(-140,13)" text-anchor="middle" font-size="10" fill="#555">% of requests</text>
  <text x="430" y="278" text-anchor="middle" font-size="10" fill="#555">ISL (tokens, template-inclusive)</text>
  <text x="52" y="278" font-size="9" fill="#059669">aiperf mean=162.3 std=22.87 | vLLM Docker mean=162.3 std=22.87 | delta = 0.0</text>
</svg>